<svg width="145" height="38" viewBox="0 0 145 38" fill="none" xmlns="http://www.w3.org/2000/svg">
<path d="M35.7677 30.45V4.3391H46.1214C47.8863 4.3391 49.3309 4.69571 50.4551 5.40892C51.5914 6.11005 52.4316 7.01063 52.9755 8.11068C53.5316 9.21072 53.8096 10.347 53.8096 11.5196C53.8096 12.9581 53.4651 14.179 52.7761 15.1824C52.0991 16.1857 51.1744 16.8627 50.0018 17.2132V16.3066C51.6458 16.6813 52.8909 17.461 53.7371 18.6457C54.5954 19.8304 55.0245 21.1782 55.0245 22.6893C55.0245 24.2366 54.7283 25.5905 54.136 26.751C53.5437 27.9115 52.6612 28.8181 51.4887 29.4709C50.3282 30.1236 48.8897 30.45 47.1731 30.45H35.7677ZM40.1921 26.3339H46.6291C47.3907 26.3339 48.0737 26.1828 48.6781 25.8806C49.2825 25.5663 49.754 25.1311 50.0925 24.5751C50.443 24.0069 50.6183 23.336 50.6183 22.5623C50.6183 21.8612 50.4672 21.2326 50.165 20.6766C49.8628 20.1205 49.4215 19.6793 48.8413 19.3529C48.2611 19.0144 47.566 18.8452 46.7561 18.8452H40.1921V26.3339ZM40.1921 14.7653H46.067C46.6956 14.7653 47.2577 14.6444 47.7534 14.4027C48.249 14.1609 48.6418 13.8043 48.932 13.3329C49.2221 12.8614 49.3671 12.2812 49.3671 11.5921C49.3671 10.6855 49.077 9.92998 48.4968 9.32556C47.9165 8.72114 47.1066 8.41893 46.067 8.41893H40.1921V14.7653ZM67.2952 30.994C65.3369 30.994 63.6263 30.5528 62.1636 29.6703C60.701 28.7879 59.5646 27.573 58.7547 26.0257C57.9569 24.4663 57.558 22.6772 57.558 20.6584C57.558 18.6034 57.969 16.8022 58.791 15.2549C59.613 13.7076 60.7554 12.4988 62.218 11.6284C63.6807 10.758 65.3731 10.3229 67.2952 10.3229C69.2656 10.3229 70.9821 10.7641 72.4448 11.6465C73.9075 12.529 75.0438 13.7499 75.8537 15.3093C76.6637 16.8566 77.0686 18.6397 77.0686 20.6584C77.0686 22.6893 76.6576 24.4844 75.8356 26.0438C75.0257 27.5911 73.8894 28.806 72.4267 29.6884C70.964 30.5588 69.2535 30.994 67.2952 30.994ZM67.2952 26.896C69.0359 26.896 70.3294 26.3158 71.1755 25.1553C72.0217 23.9948 72.4448 22.4959 72.4448 20.6584C72.4448 18.7605 72.0157 17.2495 71.1574 16.1253C70.2991 14.989 69.0117 14.4208 67.2952 14.4208C66.1226 14.4208 65.1555 14.6868 64.394 15.2186C63.6445 15.7384 63.0884 16.4698 62.7258 17.4127C62.3631 18.3435 62.1818 19.4254 62.1818 20.6584C62.1818 22.5563 62.6109 24.0734 63.4692 25.2097C64.3396 26.3339 65.6149 26.896 67.2952 26.896ZM81.4264 30.45V3.79512H85.7963V30.45H81.4264ZM99.0793 30.994C97.2781 30.994 95.7066 30.5407 94.3648 29.634C93.023 28.7274 91.9834 27.4944 91.246 25.935C90.5086 24.3756 90.1399 22.6167 90.1399 20.6584C90.1399 18.6759 90.5086 16.911 91.246 15.3637C91.9955 13.8043 93.0532 12.5773 94.4192 11.6828C95.7852 10.7762 97.393 10.3229 99.2425 10.3229C101.104 10.3229 102.664 10.7762 103.921 11.6828C105.19 12.5773 106.151 13.8043 106.804 15.3637C107.457 16.9231 107.783 18.688 107.783 20.6584C107.783 22.6047 107.457 24.3635 106.804 25.935C106.151 27.4944 105.178 28.7274 103.884 29.634C102.591 30.5407 100.989 30.994 99.0793 30.994ZM99.7502 27.0774C100.923 27.0774 101.866 26.8114 102.579 26.2795C103.304 25.7355 103.83 24.98 104.156 24.0129C104.495 23.0459 104.664 21.9277 104.664 20.6584C104.664 19.3771 104.495 18.2589 104.156 17.3039C103.83 16.3368 103.316 15.5873 102.615 15.0555C101.914 14.5115 101.007 14.2395 99.8953 14.2395C98.7227 14.2395 97.7556 14.5296 96.9941 15.1099C96.2325 15.678 95.6704 16.4517 95.3077 17.4308C94.9451 18.3979 94.7638 19.4738 94.7638 20.6584C94.7638 21.8552 94.939 22.9431 95.2896 23.9223C95.6523 24.8894 96.2023 25.657 96.9397 26.2251C97.6771 26.7933 98.6139 27.0774 99.7502 27.0774ZM104.664 30.45V16.7055H104.12V4.3391H108.526V30.45H104.664ZM122.26 30.994C120.301 30.994 118.591 30.5528 117.128 29.6703C115.665 28.7879 114.529 27.573 113.719 26.0257C112.921 24.4663 112.522 22.6772 112.522 20.6584C112.522 18.6034 112.933 16.8022 113.755 15.2549C114.577 13.7076 115.72 12.4988 117.182 11.6284C118.645 10.758 120.337 10.3229 122.26 10.3229C124.23 10.3229 125.946 10.7641 127.409 11.6465C128.872 12.529 130.008 13.7499 130.818 15.3093C131.628 16.8566 132.033 18.6397 132.033 20.6584C132.033 22.6893 131.622 24.4844 130.8 26.0438C129.99 27.5911 128.854 28.806 127.391 29.6884C125.928 30.5588 124.218 30.994 122.26 30.994ZM122.26 26.896C124 26.896 125.294 26.3158 126.14 25.1553C126.986 23.9948 127.409 22.4959 127.409 20.6584C127.409 18.7605 126.98 17.2495 126.122 16.1253C125.264 14.989 123.976 14.4208 122.26 14.4208C121.087 14.4208 120.12 14.6868 119.358 15.2186C118.609 15.7384 118.053 16.4698 117.69 17.4127C117.327 18.3435 117.146 19.4254 117.146 20.6584C117.146 22.5563 117.575 24.0734 118.434 25.2097C119.304 26.3339 120.579 26.896 122.26 26.896Z" fill="white"/>
<path d="M0 16.45H14.3176C19.201 16.45 23.1597 20.4088 23.1597 25.2921C23.1597 30.1755 19.201 34.1343 14.3176 34.1343H0V16.45Z" fill="white"/>
<path d="M0 0.976349H9.47953C13.1421 0.976349 16.1111 3.94541 16.1111 7.60793C16.1111 11.2704 13.1421 14.2395 9.47953 14.2395H0V0.976349Z" fill="white"/>
</svg>
