<svg width="155" height="133" viewBox="0 0 155 133" fill="none" xmlns="http://www.w3.org/2000/svg">
<ellipse cx="5.52397" cy="5.60049" rx="4.90874" ry="4.75784" fill="#FC5B00"/>
<ellipse cx="25.159" cy="5.60049" rx="4.90874" ry="4.75784" fill="#ECAA00"/>
<ellipse cx="44.794" cy="5.60049" rx="4.90874" ry="4.75784" fill="#009D10"/>
<rect width="9.67665" height="23.2668" rx="4.83833" transform="matrix(1 0 0 -1 9.47119 132.528)" fill="#0DBBFC"/>
<rect width="9.67665" height="13.4841" rx="4.83833" transform="matrix(1 0 0 -1 28.8245 122.745)" fill="#0DBBFC"/>
<rect x="48.1777" y="46.8639" width="9.67665" height="62.3972" rx="4.83833" fill="#0DBBFC"/>
<rect x="67.5312" y="66.1648" width="9.67665" height="43.0964" rx="4.83833" fill="#0DBBFC"/>
<rect x="86.8845" y="26.2411" width="9.67666" height="83.02" rx="4.83833" fill="#95ABBC"/>
<rect x="106.238" y="50.5655" width="9.67664" height="58.6957" rx="4.83832" fill="#0DBBFC"/>
<rect x="125.591" y="39.1965" width="9.67664" height="70.0647" rx="4.83832" fill="#0DBBFC"/>
<rect x="144.944" y="77.2693" width="9.67667" height="31.9918" rx="4.83833" fill="#0DBBFC"/>
</svg>
