<?xml version="1.0" encoding="utf-8"?>
<!-- Generator: Adobe Illustrator 28.1.0, SVG Export Plug-In . SVG Version: 6.00 Build 0)  -->
<svg version="1.1" id="Layer_1" xmlns="http://www.w3.org/2000/svg" xmlns:xlink="http://www.w3.org/1999/xlink" x="0px" y="0px"
	 viewBox="0 0 193 166" style="enable-background:new 0 0 193 166;" xml:space="preserve">
<style type="text/css">
	.st0{fill:#0A2640;fill-opacity:0.8;}
	.st1{fill:#FC5B00;}
	.st2{fill:#ECAA00;}
	.st3{fill:#009D10;}
	.st4{fill:#0DBBFC;}
	.st5{fill:#95ABBC;}
</style>
<g>
	<g>
		<path class="st0" d="M15.1-0.3h162.1c8.3,0,15,6.7,15,15V150c0,8.3-6.7,15-15,15H15.1c-8.3,0-15-6.7-15-15V14.7
			C0.1,6.4,6.8-0.3,15.1-0.3z"/>
	</g>
	<g>
		<ellipse class="st1" cx="24.1" cy="21.3" rx="4.9" ry="4.8"/>
		<ellipse class="st2" cx="43.7" cy="21.3" rx="4.9" ry="4.8"/>
		<ellipse class="st3" cx="63.4" cy="21.3" rx="4.9" ry="4.8"/>
		<path class="st4" d="M32.9,148.2L32.9,148.2c2.7,0,4.8-2.2,4.8-4.8v-13.6c0-2.7-2.2-4.8-4.8-4.8l0,0c-2.7,0-4.8,2.2-4.8,4.8v13.6
			C28,146,30.2,148.2,32.9,148.2z"/>
		<path class="st4" d="M52.2,138.4L52.2,138.4c2.7,0,4.8-2.2,4.8-4.8v-3.8c0-2.7-2.2-4.8-4.8-4.8l0,0c-2.7,0-4.8,2.2-4.8,4.8v3.8
			C47.4,136.2,49.6,138.4,52.2,138.4z"/>
		<path class="st4" d="M71.6,62.5L71.6,62.5c2.7,0,4.8,2.2,4.8,4.8v52.7c0,2.7-2.2,4.8-4.8,4.8l0,0c-2.7,0-4.8-2.2-4.8-4.8V67.4
			C66.7,64.7,68.9,62.5,71.6,62.5z"/>
		<path class="st4" d="M90.9,81.8L90.9,81.8c2.7,0,4.8,2.2,4.8,4.8v33.4c0,2.7-2.2,4.8-4.8,4.8l0,0c-2.7,0-4.8-2.2-4.8-4.8V86.7
			C86.1,84,88.3,81.8,90.9,81.8z"/>
		<path class="st5" d="M110.3,41.9L110.3,41.9c2.7,0,4.8,2.2,4.8,4.8v73.3c0,2.7-2.2,4.8-4.8,4.8h0c-2.7,0-4.8-2.2-4.8-4.8V46.7
			C105.4,44.1,107.6,41.9,110.3,41.9z"/>
		<path class="st4" d="M129.6,66.2L129.6,66.2c2.7,0,4.8,2.2,4.8,4.8v49c0,2.7-2.2,4.8-4.8,4.8h0c-2.7,0-4.8-2.2-4.8-4.8v-49
			C124.8,68.4,127,66.2,129.6,66.2z"/>
		<path class="st4" d="M149,54.9L149,54.9c2.7,0,4.8,2.2,4.8,4.8v60.4c0,2.7-2.2,4.8-4.8,4.8l0,0c-2.7,0-4.8-2.2-4.8-4.8V59.7
			C144.2,57,146.3,54.9,149,54.9z"/>
		<path class="st4" d="M168.3,92.9L168.3,92.9c2.7,0,4.8,2.2,4.8,4.8v22.3c0,2.7-2.2,4.8-4.8,4.8l0,0c-2.7,0-4.8-2.2-4.8-4.8V97.8
			C163.5,95.1,165.7,92.9,168.3,92.9z"/>
	</g>
</g>
</svg>
