<svg width="147" height="37" viewBox="0 0 147 37" fill="none" xmlns="http://www.w3.org/2000/svg">
<g clip-path="url(#clip0_63_656)">
<g clip-path="url(#clip1_63_656)">
<path d="M9.33951 2.69283C9.30212 2.62068 9.27931 2.54188 9.27238 2.46092C9.26546 2.37995 9.27455 2.29842 9.29914 2.22097C9.32374 2.14353 9.36335 2.07168 9.41571 2.00955C9.46808 1.94741 9.53217 1.8962 9.60434 1.85885C11.8186 0.732861 14.2782 0.175628 16.7616 0.237385C19.2449 0.299142 21.6738 0.977947 23.8294 2.2126C23.9001 2.25326 23.962 2.30752 24.0117 2.37224C24.0613 2.43697 24.0976 2.51088 24.1186 2.58971C24.1395 2.66854 24.1446 2.75074 24.1336 2.83155C24.1226 2.91237 24.0957 2.99021 24.0544 3.06058L16.9334 15.2819C16.879 15.3755 16.801 15.4531 16.7072 15.507C16.6134 15.5609 16.507 15.5892 16.3988 15.5891H16.383C16.2722 15.5861 16.1642 15.5535 16.0702 15.4947C15.9761 15.4359 15.8996 15.353 15.8484 15.2546L9.33951 2.69283ZM16.0168 18.8484V18.8472L9.5076 6.28538C9.432 6.13995 9.30194 6.03033 9.1458 5.98046C8.98967 5.93059 8.82014 5.94452 8.67424 6.0192C6.93947 6.9087 5.39744 8.13205 4.13667 9.61902C2.87589 11.106 1.92119 12.8273 1.32735 14.6842C0.733513 16.5411 0.512236 18.497 0.676218 20.4396C0.8402 22.3822 1.38621 24.2733 2.28292 26.0044C3.17962 27.7354 4.40937 29.2723 5.90157 30.5269C7.39376 31.7815 9.11904 32.7291 10.9784 33.3152C12.8377 33.9013 14.7945 34.1144 16.7364 33.9424C18.6783 33.7703 20.5671 33.2165 22.2945 32.3126C22.4395 32.2366 22.5487 32.1063 22.5981 31.9502C22.6475 31.794 22.6331 31.6247 22.5582 31.4791L16.0168 18.8484ZM23.6468 30.7219L23.6964 30.821C23.7712 30.9671 23.9 31.0782 24.0556 31.1307C24.1194 31.1518 24.1867 31.1602 24.2537 31.1554C24.3517 31.1527 24.4484 31.1317 24.5386 31.0935C24.7641 30.9818 24.9833 30.8577 25.1951 30.7219C25.8251 30.3564 26.4256 29.9423 26.9911 29.4833H23.0027L23.6468 30.7219ZM22.3586 28.2446H28.3413C28.7259 27.8581 29.0819 27.4442 29.4065 27.006H21.7145L22.3586 28.2446ZM21.0828 25.7673H30.2859C30.5396 25.3697 30.7672 24.9559 30.9672 24.5287H20.4387L21.0828 25.7673ZM19.7946 23.2901H31.5122C31.6765 22.8857 31.8171 22.4721 31.9333 22.0514H19.1505L19.7946 23.2901ZM18.5064 20.8128H32.243C32.3173 20.404 32.3792 19.9953 32.4164 19.5741H17.8747L18.5064 20.8128ZM25.1456 5.15636C25.076 5.11313 24.9981 5.08524 24.9169 5.07456C24.8357 5.06388 24.7532 5.07065 24.6749 5.09443C24.5946 5.11275 24.5191 5.14753 24.453 5.19657C24.3869 5.24561 24.3317 5.30784 24.2909 5.37931L23.9565 5.94909H26.347C25.961 5.66355 25.5599 5.39893 25.1456 5.15636ZM27.8458 7.18773H23.2381L22.5196 8.42637H29.0225C28.656 7.98976 28.2631 7.5761 27.8458 7.18773ZM29.9515 9.66501H21.7888L21.0704 10.9037H30.7071C30.4836 10.4741 30.2311 10.0603 29.9515 9.66501ZM31.3016 12.1423H20.352L19.6336 13.3809H31.7847C31.6474 12.9592 31.4861 12.5456 31.3016 12.1423ZM32.1315 14.6196H18.9028L18.1844 15.8582H32.3545C32.3053 15.4412 32.2308 15.0276 32.1315 14.6196ZM32.4783 17.0969H17.466L17.1687 17.6047C17.115 17.6941 17.0857 17.796 17.0835 17.9003C17.0813 18.0046 17.1064 18.1077 17.1563 18.1992L17.2306 18.3355H32.5031C32.5155 18.2116 32.5155 18.0754 32.5155 17.9515C32.5155 17.6666 32.5031 17.3817 32.4783 17.0969Z" fill="white"/>
<path d="M9.05494 5.40696C8.8279 4.97673 8.29352 4.80993 7.87668 5.06072C4.57681 7.04608 2.11142 10.182 0.968009 13.8808C-0.26236 17.861 0.138766 22.1669 2.08315 25.8512C4.02752 29.5356 7.35588 32.2967 11.336 33.5271C15.0348 34.6705 19.015 34.4049 22.5162 32.801C22.9585 32.5985 23.1224 32.0632 22.8953 31.6329L15.9751 18.52L9.05494 5.40696Z" fill="white"/>
</g>
<path d="M54.6157 6.48689C57.166 6.48689 59.1531 7.10322 60.577 8.33586C62.0222 9.54726 62.7448 11.2687 62.7448 13.5002C62.7448 15.7317 62.0222 17.4638 60.577 18.6965C59.1531 19.9079 57.166 20.5136 54.6157 20.5136H50.4396V27.5269H44.9564V6.48689H54.6157ZM53.755 16.4012C56.0715 16.4012 57.2298 15.4342 57.2298 13.5002C57.2298 11.5662 56.0715 10.5993 53.755 10.5993H50.4396V16.4012H53.755ZM65.8679 27.5269V11.5875H70.6497L70.8729 15.0304C71.2554 13.8615 71.8399 12.9477 72.6262 12.2888C73.4338 11.6087 74.4645 11.2687 75.7184 11.2687C76.1222 11.2687 76.4623 11.3112 76.7386 11.3962C77.0361 11.46 77.2699 11.5344 77.4399 11.6194L76.898 16.0824C76.6854 16.0186 76.4092 15.9549 76.0691 15.8911C75.7503 15.8274 75.3572 15.7955 74.8896 15.7955C73.912 15.7955 73.0619 16.1037 72.3393 16.72C71.638 17.3363 71.2873 18.2608 71.2873 19.4934V27.5269H65.8679ZM87.1574 27.8457C84.5009 27.8457 82.3969 27.1231 80.8454 25.6779C79.3153 24.2327 78.5502 22.1925 78.5502 19.5572C78.5502 17.8145 78.9008 16.3268 79.6022 15.0942C80.3248 13.8403 81.3024 12.8945 82.535 12.257C83.7889 11.5981 85.2447 11.2687 86.9024 11.2687C88.5814 11.2687 90.0053 11.5981 91.1742 12.257C92.3643 12.8945 93.2675 13.7871 93.8839 14.9348C94.5002 16.0612 94.8084 17.3576 94.8084 18.824C94.8084 19.2278 94.7871 19.6209 94.7446 20.0035C94.7233 20.3648 94.7021 20.6729 94.6808 20.928H83.8102C83.9589 22.0331 84.3202 22.8301 84.8941 23.3189C85.4679 23.7864 86.2223 24.0202 87.1574 24.0202C87.965 24.0202 88.6026 23.8608 89.0702 23.542C89.559 23.2233 89.9203 22.7769 90.1541 22.2031L94.4896 23.6377C94.192 24.5515 93.6713 25.3273 92.9275 25.9648C92.2049 26.5811 91.3336 27.0487 90.3134 27.3675C89.3146 27.6863 88.2626 27.8457 87.1574 27.8457ZM86.9024 15.0623C85.181 15.0623 84.1608 16.0505 83.8421 18.027H89.6759C89.4421 16.0505 88.5176 15.0623 86.9024 15.0623ZM104.535 27.8457C102.941 27.8457 101.464 27.5906 100.103 27.0806C98.7433 26.5493 97.6063 25.7948 96.6924 24.8172L99.2427 21.8206C99.7741 22.5007 100.475 23.0745 101.347 23.542C102.239 23.9883 103.228 24.2115 104.311 24.2115C104.97 24.2115 105.512 24.1159 105.937 23.9246C106.362 23.7333 106.575 23.4358 106.575 23.032C106.575 22.7557 106.469 22.5219 106.256 22.3306C106.044 22.1394 105.618 21.98 104.981 21.8525L102.749 21.4062C100.752 21.0024 99.3278 20.4073 98.4777 19.6209C97.6488 18.8134 97.2344 17.7614 97.2344 16.465C97.2344 15.5936 97.5 14.7647 98.0313 13.9784C98.5627 13.1921 99.3809 12.5439 100.486 12.0338C101.591 11.5237 103.004 11.2687 104.726 11.2687C108.02 11.2687 110.422 12.1826 111.93 14.0103L109.348 16.9431C108.838 16.3056 108.179 15.8061 107.372 15.4448C106.564 15.0835 105.757 14.9029 104.949 14.9029C103.398 14.9029 102.622 15.2961 102.622 16.0824C102.622 16.3587 102.749 16.6031 103.004 16.8156C103.281 17.0281 103.78 17.1982 104.503 17.3257L107.404 17.8995C109.04 18.2183 110.22 18.7708 110.942 19.5572C111.665 20.3223 112.026 21.2574 112.026 22.3625C112.026 23.914 111.399 25.221 110.145 26.2836C108.913 27.325 107.042 27.8457 104.535 27.8457ZM126.251 11.5875V15.4448H121.501V21.8525C121.501 22.6176 121.681 23.1701 122.043 23.5102C122.425 23.8289 122.946 23.9883 123.605 23.9883C124.115 23.9883 124.55 23.9352 124.912 23.8289C125.273 23.7014 125.613 23.5208 125.932 23.287L126.506 26.6343C125.974 26.9956 125.294 27.2931 124.465 27.5269C123.658 27.7394 122.84 27.8457 122.011 27.8457C120.183 27.8457 118.738 27.4631 117.675 26.698C116.634 25.9117 116.102 24.594 116.081 22.7451V15.4448H113.34V11.5875H116.081V8.01707L121.501 6.51877V11.5875H126.251ZM136.341 11.2687C138.02 11.2687 139.486 11.5981 140.74 12.257C142.015 12.9158 143.004 13.8615 143.705 15.0942C144.427 16.3268 144.789 17.8145 144.789 19.5572C144.789 21.2999 144.427 22.7876 143.705 24.0202C143.004 25.2529 142.015 26.1986 140.74 26.8574C139.486 27.5163 138.02 27.8457 136.341 27.8457C134.683 27.8457 133.217 27.5163 131.942 26.8574C130.688 26.1986 129.7 25.2529 128.977 24.0202C128.276 22.7876 127.925 21.2999 127.925 19.5572C127.925 17.8145 128.276 16.3268 128.977 15.0942C129.7 13.8615 130.688 12.9158 131.942 12.257C133.217 11.5981 134.683 11.2687 136.341 11.2687ZM136.341 15.126C135.406 15.126 134.673 15.4767 134.141 16.178C133.631 16.8581 133.376 17.9845 133.376 19.5572C133.376 21.1086 133.631 22.235 134.141 22.9363C134.673 23.6377 135.406 23.9883 136.341 23.9883C137.297 23.9883 138.03 23.6377 138.541 22.9363C139.072 22.235 139.338 21.1086 139.338 19.5572C139.338 17.9845 139.072 16.8581 138.541 16.178C138.03 15.4767 137.297 15.126 136.341 15.126Z" fill="white"/>
</g>
<defs>
<clipPath id="clip0_63_656">
<rect width="146.513" height="41.2903" fill="white" transform="translate(0.179626 -4.47311)"/>
</clipPath>
<clipPath id="clip1_63_656">
<rect width="32.745" height="34.8351" fill="white" transform="translate(-0.011549 -0.319336)"/>
</clipPath>
</defs>
</svg>
